<svg width="36" height="24" viewBox="0 0 36 24" fill="none" xmlns="http://www.w3.org/2000/svg">
<path d="M8.6252 23.734C11.6192 23.034 16.0192 19.585 16.7162 19.027C19.7762 17.954 24.5212 16.062 25.7442 14.307L29.0972 14.3C30.4381 14.2999 31.7667 14.0447 33.0122 13.548L33.2612 13.465L34.7822 12.862C34.988 12.7794 35.1644 12.637 35.2886 12.4533C35.4129 12.2695 35.4792 12.0528 35.4792 11.831C35.4792 11.6092 35.4129 11.3925 35.2886 11.2087C35.1644 11.025 34.988 10.8826 34.7822 10.8L33.3122 10.2L33.0392 10.127C31.7828 9.6299 30.4433 9.3764 29.0922 9.38L25.7302 9.386C24.4822 7.639 19.7462 5.772 16.6902 4.713C15.9902 4.157 11.5552 0.73 8.58121 0.033L8.4282 0L8.2772 0.038C6.1312 0.589 5.8232 5.586 5.8362 8.61H5.3632C5.20278 8.611 5.04481 8.64951 4.90191 8.72243C4.75902 8.79536 4.63515 8.90068 4.54021 9.03C4.40135 9.21566 4.28488 9.41705 4.1932 9.63H2.9022L0.502205 8.96L0.193203 10.247C-0.0663071 11.3434 -0.0642509 12.4855 0.199203 13.581L0.512203 14.868L2.9122 14.189H4.2322C4.32538 14.3893 4.44077 14.5785 4.5762 14.753C4.71055 14.9253 4.89728 15.0492 5.1082 15.106C5.19557 15.1297 5.28568 15.1418 5.3762 15.142H5.8532C5.84821 18.153 6.16821 23.154 8.3042 23.727L8.3262 23.732L8.47721 23.77L8.6252 23.734ZM32.3252 12.434C32.0261 12.5328 31.722 12.6159 31.4142 12.683C31.5683 12.4342 31.6503 12.1476 31.6512 11.855C31.6448 11.5228 31.5366 11.2007 31.3412 10.932C31.6733 11.012 32.0011 11.1091 32.3232 11.223C32.4731 11.6128 32.4731 12.0442 32.3232 12.434M29.2822 11.864C29.2822 11.628 29.2822 12.175 29.2822 11.864V11.864ZM19.3672 10.864V12.874L5.20321 12.914V12.9V10.905L19.3672 10.864ZM8.4752 1.329H8.4822H8.4752ZM3.34821 12.91C3.33821 12.851 3.3242 12.795 3.3152 12.736C3.2942 12.585 3.2872 12.436 3.2772 12.28C3.26183 12.0299 3.26183 11.7791 3.2772 11.529C3.2862 11.385 3.29221 11.242 3.31221 11.098C3.32021 11.036 3.3362 10.978 3.3452 10.916H3.9212V12.905V12.913L3.34821 12.91Z" fill="#6537FF"/>
</svg>
