<svg width="182" height="220" viewBox="0 0 182 220" fill="none" xmlns="http://www.w3.org/2000/svg">
<path d="M142.196 206.969C149.838 186.508 146.759 146.915 146.206 140.596C151.907 118.282 159.398 82.7794 153.831 68.6342L166.993 48.7992C172.272 40.874 175.992 32.0158 177.957 22.6971L178.443 20.8992L180.863 9.53947C181.191 7.99194 181.047 6.38101 180.448 4.91567C179.849 3.45033 178.823 2.1982 177.505 1.32174C176.186 0.445273 174.634 -0.0150916 173.051 0.000372397C171.468 0.0158321 169.927 0.506404 168.627 1.40845L159.303 7.74315L157.796 9.06886C149.907 14.5331 143.133 21.4488 137.833 29.447L124.631 49.3418C109.393 49.8206 79.7152 70.4432 61.4124 84.3247C55.3644 86.2671 17.625 98.9696 1.78885 113.795L0.991497 114.564L0.623868 115.61C-4.56429 130.464 23.7892 151.981 41.7335 163.83L39.8777 166.63C39.2522 167.582 38.8584 168.668 38.7277 169.8C38.5971 170.933 38.7332 172.08 39.1253 173.151C39.676 174.704 40.4081 176.187 41.3063 177.569L36.2388 185.208L22.8021 196.776L29.2006 203.676C34.6663 209.53 41.4316 214.02 48.9502 216.781L57.7968 220.007L63.2313 203.139L68.4153 195.326C69.9664 195.566 71.5394 195.631 73.1046 195.519C74.6519 195.403 76.1188 194.787 77.2847 193.765C77.7686 193.342 78.1947 192.857 78.552 192.323L80.4203 189.504C98.2155 201.406 129.066 219.227 140.864 208.865L140.981 208.757L141.804 208.015L142.196 206.969ZM168.698 22.3575C168.103 24.5152 167.396 26.6402 166.58 28.7239C165.717 26.8307 164.345 25.2134 162.618 24.0521C160.628 22.7806 158.295 22.1503 155.936 22.2464C157.717 20.5997 159.582 19.0462 161.523 17.5921C164.419 18.2368 166.974 19.9316 168.695 22.3489M153.296 38.1081C151.897 37.1877 155.14 39.3363 153.296 38.1081V38.1081ZM108.314 92.747L120.223 100.647L64.6864 184.503L64.6289 184.475L52.8168 176.627L108.314 92.747ZM9.04305 119.528L9.07041 119.502L9.04305 119.528ZM57.3708 195.485C56.978 195.311 56.5926 195.175 56.2075 194.994C55.2347 194.516 54.2991 193.963 53.3556 193.423C51.8147 192.527 50.3302 191.538 48.9105 190.461C48.0956 189.842 47.2725 189.237 46.4975 188.558C46.164 188.27 45.8809 187.939 45.5521 187.644L47.8028 184.233L59.5844 192.061L59.6349 192.085L57.3708 195.485Z" fill="white"/>
</svg>
